# AST/ASF file generated using VICON BodyLanguage
# -----------------------------------------------
:version 1.10
:name VICON
:units
  mass 1.0
  length 0.45
  angle deg
:documentation
   .ast/.asf automatically generated from VICON data using
   VICON BodyBuilder and BodyLanguage model FoxedUp or BRILLIANT.MOD
:root
   order TX TY TZ RX RY RZ
   axis XYZ
   position 0 0 0  
   orientation 0 0 0 
:bonedata
  begin
     id 1 
     name lhipjoint
     direction 0.611804 -0.747784 0.257906 
     length 2.29243 
     axis 0 0 0  XYZ
  end
  begin
     id 2 
     name lfemur
     direction 0.34202 -0.939693 0  
     length 7.31159  
     axis 0 0 20  XYZ
    dof rx ry rz
    limits (-160.0 20.0)
           (-70.0 70.0)
           (-60.0 70.0)
  end
  begin
     id 3 
     name ltibia
     direction 0.34202 -0.939693 0   
     length 7.33391   
     axis 0 0 20   XYZ
    dof rx
    limits (-10.0 170.0)
  end
  begin
     id 4 
     name lfoot
     direction 0.122263 -0.335914 0.933924   
     length 1.76083   
     axis -90 7.62852e-016 20   XYZ
    dof rx rz
    limits (-45.0 90.0)
           (-70.0 20.0)
  end
  begin
     id 5 
     name ltoes
     direction 1.53533e-011 -4.2177e-011 1   
     length 0.879206   
     axis -90 7.62852e-016 20   XYZ
    dof rx
    limits (-90.0 20.0)
  end
  begin
     id 6 
     name rhipjoint
     direction -0.646469 -0.721248 0.248754   
     length 2.37677  
     axis 0 0 0  XYZ 
  end
  begin
     id 7 
     name rfemur
     direction -0.34202 -0.939693 0   
     length 7.18623   
     axis 0 0 -20   XYZ
    dof rx ry rz
    limits (-160.0 20.0)
           (-70.0 70.0)
           (-70.0 60.0)
  end
  begin
     id 8 
     name rtibia
     direction -0.34202 -0.939693 0   
     length 7.36567   
     axis 0 0 -20   XYZ
    dof rx
    limits (-10.0 170.0)
 end
 begin
     id 9 
     name rfoot
     direction -0.126681 -0.348054 0.928876   
     length 1.71902  
     axis -90 -7.62852e-016 -20   XYZ
    dof rx rz
    limits (-45.0 90.0)
           (-20.0 70.0)
  end
  begin
     id 10 
     name rtoes
     direction -1.53551e-011 -4.21898e-011 1   
     length 0.857792   
     axis -90 -7.62852e-016 -20   XYZ
    dof rx
    limits (-90.0 20.0)
  end
  begin
     id 11 
     name lowerback
     direction 0.0106509 0.999778 0.0181844   
     length 2.07668   
     axis 0 0 0   XYZ
    dof rx ry rz
    limits (-20.0 45.0)
           (-30.0 30.0)
           (-30.0 30.0)
  end
  begin
     id 12 
     name upperback
     direction -0.00456018 0.999989 -0.000590935   
     length 2.08011   
     axis 0 0 0   XYZ
    dof rx ry rz
    limits (-20.0 45.0)
           (-30.0 30.0)
           (-30.0 30.0)
  end
  begin
     id 13 
     name thorax
     direction -0.00910382 0.999916 -0.00923765   
     length 2.07397   
     axis 0 0 0   XYZ
    dof rx ry rz
    limits (-20.0 45.0)
           (-30.0 30.0)
           (-30.0 30.0)
  end
  begin
     id 14 
     name lowerneck
     direction 0.00171967 0.99778 0.0665733   
     length 1.67556   
     axis 0 0 0   XYZ
    dof rx ry rz
    limits (-20.0 45.0)
           (-30.0 30.0)
           (-30.0 30.0)
  end
  begin
     id 15 
     name upperneck
     direction -0.0143166 0.991302 -0.130828   
     length 1.68462   
     axis 0 0 0   XYZ
    dof rx ry rz
    limits (-20.0 45.0)
           (-30.0 30.0)
           (-30.0 30.0)
  end
  begin
     id 16
     name head
     direction -0.00606378 0.998665 -0.0512995  
     length 1.69269  
     axis 0 0 0   XYZ
    dof rx ry rz
    limits (-20.0 45.0)
           (-30.0 30.0)
           (-30.0 30.0)
  end
  begin
     id 17 
     name lclavicle
     direction 0.9638 0.179341 0.197297  
     length 4.12888  
     axis 0 0 0   XYZ
    dof ry rz
    limits (-20.0 10.0)
           (0.0 20.0)
  end
  begin
     id 18 
     name lhumerus
     direction 1 -4.48972e-011 -2.47351e-027   
     length 5.01834   
     axis -180 -30 -90   XYZ
    dof rx ry rz
    limits (-60.0 90.0)
           (-90.0 90.0)
           (-90.0 90.0)
  end
  begin
     id 19
     name lradius
     direction 1 -4.48965e-011 1.51591e-026   
     length 3.4869   
     axis -180 -30 -90   XYZ
    dof rx
    limits (-10.0 170.0)
  end
  begin
     id 20
     name lwrist
     direction 1 -4.48957e-011 2.70032e-026   
     length 1.74345   
     axis -1.81515e-014 90 90   XYZ
    dof ry
    limits (-180.0 0.0)
 end
  begin
     id 21 
     name lhand
     direction 1 -4.48951e-011 5.40064e-026   
     length 0.76799   
     axis -3.44607e-014 90 90   XYZ
    dof rx rz
    limits (-90.0 90.0)
           (-45.0 45.0)
  end
  begin
     id 22 
     name lfingers
     direction 1 -4.48971e-011 1.08013e-025   
     length 0.619174   
     axis -6.89214e-014 90 90   XYZ
    dof rx
    limits (0.0 90.0)
  end
  begin
     id 23
     name lthumb
     direction 0.707107 -6.34931e-011 0.707107   
     length 0.889013   
     axis -90 45 2.85299e-015   XYZ
    dof rx rz
    limits (-45.0 45.0)
           (-45.0 45.0)
  end
  begin
     id 24 
     name rclavicle
     direction -0.961409 0.252588 0.109054   
     length 4.04305  
     axis 0 0 0   XYZ 
    dof ry rz
    limits (-10.0 20.0)
           (-20.0 0.0)
  end
  begin
     id 25 
     name rhumerus
     direction -1 -4.4897e-011 1.33872e-017  
     length 4.70164   
     axis -180 30 90   XYZ
    dof rx ry rz
    limits (-90.0 60.0)
           (-90.0 90.0)
           (-90.0 90.0)
  end
  begin
     id 26 
     name rradius
     direction -1 -4.48954e-011 1.83844e-026   
     length 3.49911   
     axis -180 30 90   XYZ
    dof rx
    limits (-10.0 170.0)
  end
  begin
     id 27 
     name rwrist
     direction -1 -4.49008e-011 2.70032e-026   
     length 1.74955   
     axis -1.81515e-014 -90 -90   XYZ
    dof ry
    limits (-180.0 0.0)
  end
  begin
     id 28
     name rhand
     direction -1 -4.48916e-011 5.40064e-026   
     length 0.739335   
     axis -3.44607e-014 -90 -90   XYZ
    dof rx rz
    limits (-90.0 90.0)
           (-45.0 45.0)
  end
  begin
     id 29
     name rfingers
     direction -1 -4.48987e-011 1.08013e-025   
     length 0.596071   
     axis -6.89214e-014 -90 -90   XYZ
    dof rx
    limits (0.0 90.0)
  end
  begin
     id 30
     name rthumb
     direction -0.707107 -6.34935e-011 0.707107   
     length 0.855843   
     axis -90 -45 -2.85299e-015   XYZ
    dof rx rz
    limits (-45.0 45.0)
           (-45.0 45.0)
  end
:hierarchy
  begin
    root lhipjoint rhipjoint lowerback
    lhipjoint lfemur
    lfemur ltibia
    ltibia lfoot
    lfoot ltoes
    rhipjoint rfemur
    rfemur rtibia
    rtibia rfoot
    rfoot rtoes
    lowerback upperback
    upperback thorax
    thorax lowerneck lclavicle rclavicle
    lowerneck upperneck
    upperneck head
    lclavicle lhumerus
    lhumerus lradius
    lradius lwrist
    lwrist lhand lthumb
    lhand lfingers
    rclavicle rhumerus
    rhumerus rradius
    rradius rwrist
    rwrist rhand rthumb
    rhand rfingers
  end

#!OML:ASF I:\salsa\salsa 7_09\Patient 1\Session 1\dancermale.ASF
:FULLY-SPECIFIED
:DEGREES
1262
root -0.388195 17.4497 -5.95135 193.681 197.383 176.731
lowerback -2.50078 -3.93853 2.44972
upperback -2.02727 -5.32458 -2.42567
thorax -1.14162 -2.72583 -3.92109
lowerneck -6.07722 -13.6686 -6.57068
upperneck 18.6407 -18.5031 2.42615
head 7.57891 -9.16178 0.154544
rclavicle 6.59965e-014 -1.11319e-014
rhumerus 17.8148 -23.3378 -24.0773
rradius 88.8676
rwrist -22.5418
rhand 7.1738 1.10403
rfingers 7.12502
rthumb 32.4411 -26.0125
lclavicle 6.59965e-014 -1.11319e-014
lhumerus -34.0002 -51.1112 123.008
lradius 64.8515
lwrist 33.0125
lhand -0.0379505 43.062
lfingers 7.12502
lthumb 25.554 1151.37
rfemur -12.0729 7.67065 23.9983
rtibia 17.2846
rfoot -18.6662 -13.3984
rtoes 4.50889
lfemur -39.2544 2.58486 -17.6857
ltibia 53.6791
lfoot 345.947 9.26496
ltoes -3.30613
1263
root -0.362454 17.464 -6.02336 193.979 196.311 176.55
lowerback -2.87431 -3.90394 2.61069
upperback -2.07582 -5.28644 -2.33365
thorax -0.98581 -2.70611 -3.94274
lowerneck -5.92442 -13.7997 -6.74012
upperneck 18.734 -18.7191 2.63205
head 7.6316 -9.25994 0.221502
rclavicle -3.85642e-014 -1.59028e-015
rhumerus 17.5648 -24.7738 -22.669
rradius 84.3384
rwrist -23.4053
rhand 4.94729 0.957445
rfingers 7.12502
rthumb 30.3197 -26.5715
lclavicle -3.85642e-014 -1.59028e-015
lhumerus -34.3516 -50.3685 122.264
lradius 65.4946
lwrist 32.9308
lhand 0.175826 43.0593
lfingers 7.12502
lthumb 25.7588 1151.34
rfemur -11.4504 7.84048 24.2385
rtibia 15.2462
rfoot -17.9766 -14.1256
rtoes 5.18347
lfemur -38.5981 4.12122 -16.7364
ltibia 55.8777
lfoot 346.186 10.7723
ltoes 3.04956
1264
root -0.33179 17.4817 -6.09157 194.262 195.258 176.374
lowerback -3.14365 -3.88328 2.75699
upperback -2.19299 -5.26702 -2.2356
thorax -0.958641 -2.69894 -3.93864
lowerneck -5.68866 -13.9193 -6.89066
upperneck 18.7602 -18.9191 2.81516
head 7.64358 -9.35448 0.290209
rclavicle -1.49089e-014 -4.77083e-015
rhumerus 16.9662 -25.6505 -21.2718
rradius 79.9749
rwrist -24.3838
rhand 2.79512 0.724508
rfingers 7.12502
rthumb 28.2648 -27.1633
lclavicle -1.49089e-014 -4.77083e-015
lhumerus -34.695 -49.4845 121.587
lradius 65.9739
lwrist 32.8379
lhand -0.954678 44.5683
lfingers 7.12502
lthumb 24.6756 1153
rfemur -11.0651 8.16917 24.3982
rtibia 13.7333
rfoot -17.5141 -14.8829
rtoes 6.26266
lfemur -37.7724 5.66718 -15.7543
ltibia 57.4729
lfoot 346.491 12.352
ltoes 8.28534
1265
root -0.295489 17.4996 -6.15415 194.461 194.238 176.315
lowerback -3.43139 -3.94049 2.82498
upperback -2.27559 -5.35068 -2.17406
thorax -0.891254 -2.74151 -3.93265
lowerneck -5.66899 -13.9395 -6.93056
upperneck 18.8929 -18.9688 2.89422
head 7.69891 -9.37266 0.309212
rclavicle 1.15295e-014 -1.43125e-014
rhumerus 16.3826 -26.0131 -20.1767
rradius 75.8548
rwrist -25.1764
rhand 0.655047 0.579718
rfingers 7.12502
rthumb 26.2176 -27.6294
lclavicle 1.15295e-014 -1.43125e-014
lhumerus -34.9867 -48.396 120.786
lradius 66.4357
lwrist 32.4155
lhand -0.968936 44.5227
lfingers 7.12502
lthumb 24.662 1152.95
rfemur -10.7771 7.95993 24.31
rtibia 12.4398
rfoot -17.0705 -15.1419
rtoes 8.17976
lfemur -36.7263 6.9529 -14.8095
ltibia 58.411
lfoot 346.414 13.7109
ltoes 13.5838
1266
root -0.256196 17.5156 -6.21679 194.667 193.299 176.5
lowerback -3.75034 -3.99197 2.54351
upperback -2.39452 -5.4175 -2.13541
thorax -0.811462 -2.77158 -3.7577
lowerneck -5.70773 -13.9807 -6.97715
upperneck 19.1311 -19.0324 2.8842
head 7.79198 -9.40213 0.291765
rclavicle 6.10269e-014 3.65764e-014
rhumerus 15.5977 -25.9712 -19.1132
rradius 72.1393
rwrist -25.726
rhand -1.37347 0.335435
rfingers 7.12502
rthumb 24.2742 -28.1478
lclavicle 6.10269e-014 3.65764e-014
lhumerus -35.395 -47.3302 120.166
lradius 66.8474
lwrist 31.8017
lhand -1.38124 44.076
lfingers 7.12502
lthumb 24.2667 1152.56
rfemur -10.769 7.10693 23.9274
rtibia 11.4151
rfoot -16.5711 -14.8811
rtoes 9.62774
lfemur -35.6266 8.21788 -14.1219
ltibia 58.7857
lfoot 346.171 14.6633
ltoes 17.689
1267
root -0.220714 17.531 -6.29083 194.853 192.428 176.902
lowerback -4.11738 -4.05259 2.75513
upperback -2.48141 -5.51662 -2.76894
thorax -0.790797 -2.83417 -4.55532
lowerneck -5.66367 -13.903 -6.72668
upperneck 19.4598 -19.1114 3.45851
head 7.93156 -9.37568 0.413068
rclavicle -4.53229e-014 2.8625e-014
rhumerus 14.1702 -25.6441 -18.8698
rradius 68.9075
rwrist -25.9062
rhand -3.25902 0.158687
rfingers 7.12502
rthumb 22.4654 -28.5547
lclavicle -4.53229e-014 2.8625e-014
lhumerus -36.1167 -46.7341 118.837
lradius 67.2396
lwrist 31.2985
lhand -3.25317 43.9071
lfingers 7.12502
lthumb 22.471 1152.62
rfemur -11.0987 6.64454 23.459
rtibia 10.9786
rfoot -16.2413 -15.1477
rtoes 9.88475
lfemur -34.5247 9.76427 -13.7406
ltibia 58.7199
lfoot 346.517 15.4521
ltoes 19.0203
1268
root -0.166115 17.538 -6.35999 194.771 191.569 176.895
lowerback -3.80098 -4.18133 1.90409
upperback -2.59948 -5.65254 -2.00955
thorax -0.937978 -2.8838 -3.27302
lowerneck -5.67476 -13.8178 -7.7256
upperneck 19.3841 -18.8722 3.54164
head 8.00552 -9.31418 0.594386
rclavicle 1.99779e-014 1.59028e-015
rhumerus 13.7506 -24.6607 -17.1507
rradius 66.0149
rwrist -26.1639
rhand -5.13758 -0.0498605
rfingers 7.12502
rthumb 20.6612 -28.9701
lclavicle 1.99779e-014 1.59028e-015
lhumerus -35.5866 -45.1326 118.604
lradius 67.2259
lwrist 30.5125
lhand -2.34155 42.9757
lfingers 7.12502
lthumb 23.3458 1151.58
rfemur -11.3133 6.50272 23.4599
rtibia 11.0669
rfoot -15.9401 -15.806
rtoes 9.14441
lfemur -32.9735 11.3613 -12.8944
ltibia 58.1696
lfoot 347.466 16.0339
ltoes 21.1653
1269
root -0.108191 17.548 -6.42228 194.487 190.802 177.212
lowerback -3.66533 -4.22389 1.60525
upperback -2.52526 -5.69863 -2.11985
thorax -0.922113 -2.90211 -3.21417
lowerneck -5.58471 -13.7648 -7.75616
upperneck 19.2592 -18.8348 3.75532
head 7.97051 -9.28406 0.679377
rclavicle -6.44062e-014 -1.90833e-014
rhumerus 12.4354 -23.5892 -16.2337
rradius 63.5595
rwrist -26.244
rhand -6.8813 -0.256189
rfingers 7.12502
rthumb 18.985 -29.3497
lclavicle -6.44062e-014 -1.90833e-014
lhumerus -35.4633 -44.3899 117.576
lradius 67.3433
lwrist 29.8996
lhand -1.29227 42.9909
lfingers 7.12502
lthumb 24.352 1151.46
rfemur -11.5864 6.33683 23.0066
rtibia 11.5628
rfoot -15.8199 -16.5235
rtoes 8.71959
lfemur -31.1029 12.7014 -12.3655
ltibia 57.0003
lfoot 348.934 16.0838
ltoes 25.3755
1270
root -0.0457168 17.5457 -6.49319 194.395 190.011 177.433
lowerback -3.57051 -4.22254 1.44415
upperback -2.5499 -5.69291 -2.25478
thorax -0.998043 -2.89951 -3.25419
lowerneck -5.51116 -13.7955 -7.52203
upperneck 19.3314 -18.9098 3.72532
head 7.95948 -9.30864 0.634841
rclavicle -1.78906e-014 -6.36111e-015
rhumerus 10.773 -22.2101 -15.4179
rradius 61.5724
rwrist -26.4948
rhand -8.11955 -0.0579262
rfingers 7.12502
rthumb 17.7938 -29.2638
lclavicle -1.78906e-014 -6.36111e-015
lhumerus -35.4603 -43.8753 116.616
lradius 67.3483
lwrist 29.5998
lhand -1.09222 43.1312
lfingers 7.12502
lthumb 24.5438 1151.58
rfemur -12.2388 6.14742 22.7028
rtibia 12.4808
rfoot -16.2996 -17.1219
rtoes 9.8361
lfemur -29.407 13.9788 -11.7298
ltibia 55.4673
lfoot 350.511 15.7338
ltoes 29.223
1271
root 0.0361801 17.5429 -6.55082 193.978 189.25 177.512
lowerback -3.30202 -4.26854 1.59089
upperback -2.43461 -5.75546 -2.3233
thorax -1.05508 -2.93259 -3.3891
lowerneck -5.63243 -13.7639 -7.38156
upperneck 19.6233 -18.8531 3.52065
head 8.03983 -9.28224 0.541051
rclavicle -3.10104e-014 9.54166e-015
rhumerus 9.35791 -20.6534 -14.9733
rradius 60.1099
rwrist -27.238
rhand -8.78412 0.223542
rfingers 7.12502
rthumb 17.1542 -29.0392
lclavicle -3.10104e-014 9.54166e-015
lhumerus -35.0775 -43.1246 115.481
lradius 67.1535
lwrist 29.3499
lhand -1.2279 43.7038
lfingers 7.12502
lthumb 24.4137 1152.17
rfemur -12.5815 5.83506 22.4476
rtibia 13.5395
rfoot -15.7807 -17.5677
rtoes 4.40253
lfemur -27.1368 14.9587 -10.9801
ltibia 52.9522
lfoot 353.064 15.9653
ltoes 27.8206
1272
root 0.133403 17.5405 -6.60612 193.625 188.486 177.748
lowerback -3.19913 -4.36832 1.73495
upperback -2.31585 -5.89041 -2.42305
thorax -1.02543 -3.00128 -3.56924
lowerneck -5.76545 -13.6932 -7.29673
upperneck 19.9434 -18.7201 3.24535
head 8.12634 -9.22857 0.43963
rclavicle 3.15074e-014 7.95139e-015
rhumerus 8.00095 -18.9113 -14.7815
rradius 59.279
rwrist -28.7696
rhand -9.33099 0.236597
rfingers 7.12502
rthumb 16.6278 -29.0711
lclavicle 3.15074e-014 7.95139e-015
lhumerus -34.4026 -42.1852 114.135
lradius 66.7515
lwrist 29.1046
lhand -1.45965 44.1475
lfingers 7.12502
lthumb 24.1916 1152.64
rfemur -13.1488 5.1045 21.9285
rtibia 14.8184
rfoot -15.9765 -17.7093
rtoes 4.09141
lfemur -24.8374 15.4384 -10.5535
ltibia 49.9463
lfoot 351.76 14.0967
ltoes 19.9642
